<svg xmlns="http://www.w3.org/2000/svg" width="27" height="27" viewBox="0 0 27 27">
  <g id="clock" transform="translate(0.14 0.14)">
    <circle id="Ellipse_21" data-name="Ellipse 21" cx="13.5" cy="13.5" r="13.5" transform="translate(-0.14 -0.14)" fill="#e7eced"/>
    <path id="Path_565" data-name="Path 565" d="M13.43,1.852A11.578,11.578,0,1,1,1.852,13.43,11.591,11.591,0,0,1,13.43,1.852M13.43,0A13.43,13.43,0,1,0,26.86,13.43,13.43,13.43,0,0,0,13.43,0Z" fill="#424a60"/>
    <g id="Group_397" data-name="Group 397" transform="translate(2.779 2.723)">
      <path id="Path_566" data-name="Path 566" d="M28.463,5.879A.463.463,0,0,0,28,6.342v.463a.463.463,0,0,0,.926,0V6.342A.463.463,0,0,0,28.463,5.879Z" transform="translate(-17.812 -5.879)" fill="#7383bf"/>
      <path id="Path_567" data-name="Path 567" d="M28.463,48.879a.463.463,0,0,0-.463.463v.463a.463.463,0,0,0,.926,0v-.463A.463.463,0,0,0,28.463,48.879Z" transform="translate(-17.812 -28.966)" fill="#7383bf"/>
      <path id="Path_568" data-name="Path 568" d="M49.926,27.879h-.463a.463.463,0,1,0,0,.926h.463a.463.463,0,1,0,0-.926Z" transform="translate(-29.087 -17.691)" fill="#7383bf"/>
      <path id="Path_569" data-name="Path 569" d="M6.926,27.879H6.463a.463.463,0,0,0,0,.926h.463a.463.463,0,0,0,0-.926Z" transform="translate(-6 -17.691)" fill="#7383bf"/>
      <path id="Path_570" data-name="Path 570" d="M43.312,12.458l-.327.327a.463.463,0,1,0,.655.655l.327-.327a.463.463,0,1,0-.655-.655Z" transform="translate(-25.784 -9.338)" fill="#7383bf"/>
      <path id="Path_571" data-name="Path 571" d="M12.907,42.864l-.327.327a.463.463,0,1,0,.655.655l.327-.327a.463.463,0,0,0-.655-.655Z" transform="translate(-9.46 -25.663)" fill="#7383bf"/>
      <path id="Path_572" data-name="Path 572" d="M43.639,42.864a.463.463,0,0,0-.655.655l.327.327a.463.463,0,0,0,.655-.655Z" transform="translate(-25.784 -25.663)" fill="#7383bf"/>
      <path id="Path_573" data-name="Path 573" d="M13.234,12.458a.463.463,0,0,0-.655.655l.327.327a.463.463,0,1,0,.655-.655Z" transform="translate(-9.46 -9.338)" fill="#7383bf"/>
    </g>
    <line id="Line_21" data-name="Line 21" x1="3.705" transform="translate(8.336 13.374)" fill="none" stroke="#424a60" stroke-linecap="round" stroke-linejoin="round" stroke-width="2"/>
    <line id="Line_22" data-name="Line 22" y1="5.094" transform="translate(13.43 6.891)" fill="none" stroke="#424a60" stroke-linecap="round" stroke-linejoin="round" stroke-width="2"/>
    <circle id="Ellipse_22" data-name="Ellipse 22" cx="1.389" cy="1.389" r="1.389" transform="translate(12.041 11.985)" fill="none" stroke="#424a60" stroke-linecap="round" stroke-linejoin="round" stroke-width="2"/>
  </g>
</svg>
