<svg xmlns="http://www.w3.org/2000/svg" width="31.668" height="24.654" viewBox="0 0 31.668 24.654"><defs><style>.a{fill:#fff;}.b{fill:#ff2b3c;}</style></defs><g transform="translate(-32.5 -56.8)"><g transform="translate(32.5 56.8)"><path class="a" d="M58.3,56.807,49.129,81.454H43.685a3.187,3.187,0,0,1-2.9-1.88l-.152-.412L32.5,56.807h8.315L44.14,68.245a57.074,57.074,0,0,1,1.41,5.994H45.7c.4-2.01.81-3.883,1.359-5.994l1.41-5.083H45.825l.925-3.651A3.171,3.171,0,0,1,49.888,56.8c.116,0,.224.007.34.014l.007-.014H58.3Z" transform="translate(-32.5 -56.8)"/></g><circle class="b" cx="3.55" cy="3.55" r="3.55" transform="translate(57.068 74.246)"/></g></svg>