<svg xmlns="http://www.w3.org/2000/svg" width="106" height="24.654" viewBox="0 0 106 24.654">
  <g id="Group_865" data-name="Group 865" transform="translate(-191 -94.402)">
    <g id="Layer_3" transform="translate(158.5 37.602)">
      <g id="Group_796" data-name="Group 796" transform="translate(32.5 56.8)">
        <path id="Path_852" data-name="Path 852" d="M58.3,56.807,49.129,81.454H43.685a3.187,3.187,0,0,1-2.9-1.88l-.152-.412L32.5,56.807h8.315L44.14,68.245a57.074,57.074,0,0,1,1.41,5.994H45.7c.4-2.01.81-3.883,1.359-5.994l1.41-5.083H45.825l.925-3.651A3.171,3.171,0,0,1,49.888,56.8c.116,0,.224.007.34.014l.007-.014H58.3Z" transform="translate(-32.5 -56.8)" fill="#272727"/>
      </g>
      <circle id="Ellipse_66" data-name="Ellipse 66" cx="3.55" cy="3.55" r="3.55" transform="translate(57.068 74.246)" fill="#ff2b3c"/>
    </g>
    <text id="vently" transform="translate(262 114)" fill="#272727" font-size="24" font-family="AbeatbyKai, abeatbyKai"><tspan x="-34" y="0">vently</tspan></text>
  </g>
</svg>
